<svg width="20" height="20" viewBox="0 0 11 11" xmlns="http://www.w3.org/2000/svg">
<g clip-path="url(#clip0_1_153)">
<path d="M3.65142 2.04683C3.78676 1.91149 3.99983 1.91149 4.13517 2.04683C4.26594 2.1776 4.26594 2.39524 4.13517 2.52571L1.68228 4.97859H9.77647C9.96516 4.97859 10.12 5.12856 10.12 5.31725C10.12 5.50593 9.96516 5.66078 9.77647 5.66078H1.68228L4.13517 8.10909C4.26594 8.24443 4.26594 8.46238 4.13517 8.59284C3.99983 8.72818 3.78676 8.72818 3.65142 8.59284L0.617851 5.55927C0.487083 5.42851 0.487083 5.21087 0.617851 5.0804L3.65142 2.04683Z" />
</g>
<defs>
<clipPath id="clip0_1_153">
<rect width="9.6" height="9.6" fill="white" transform="translate(0.520004 0.52)"/>
</clipPath>
</defs>
</svg>
